<svg width="28" height="19" viewBox="0 0 28 19" fill="#E3D5C8" xmlns="http://www.w3.org/2000/svg">
<path d="M23.5119 10.2619H21.869C21.9801 9.96826 22.242 9.25794 22.6548 8.13095L22.6904 8.02375C22.7221 7.94436 22.7618 7.84118 22.8095 7.71422C22.857 7.58728 22.8928 7.48411 22.9167 7.40469L23.0596 8.05945L23.5119 10.2619ZM6.32144 9.48809L5.63095 5.97618C5.54363 5.54761 5.24602 5.33333 4.7381 5.33333H1.54762L1.5238 5.48807C3.99206 6.11506 5.59128 7.44841 6.32144 9.48809ZM8.45239 5.33333L6.52382 10.5476L6.32144 9.48809C6.11509 8.93254 5.77787 8.41865 5.30962 7.94642C4.84137 7.47421 4.32153 7.12302 3.7501 6.89285L5.35723 12.9643H7.44057L10.5477 5.33333H8.45239ZM10.1072 12.9762H12.0833L13.3214 5.33333H11.3452L10.1072 12.9762ZM19.25 5.52382C18.7024 5.30952 18.1111 5.20238 17.4762 5.20238C16.5 5.20238 15.7024 5.4365 15.0833 5.90475C14.4643 6.37302 14.1508 6.98017 14.1429 7.72619C14.1352 8.53572 14.7106 9.22619 15.8691 9.79762C16.25 9.98016 16.5159 10.1429 16.6667 10.2857C16.8175 10.4285 16.893 10.5833 16.893 10.75C16.893 10.9881 16.7739 11.1706 16.5358 11.2976C16.2977 11.4246 16.0239 11.488 15.7144 11.488C15.0319 11.488 14.4128 11.3571 13.8573 11.0952L13.5954 10.9642L13.3215 12.6785C13.9088 12.9483 14.643 13.0832 15.5239 13.0832C16.5557 13.0909 17.383 12.8567 18.0061 12.3809C18.6291 11.9047 18.9485 11.2698 18.9644 10.4761C18.9644 9.63483 18.4089 8.94435 17.2977 8.40466C16.9088 8.20626 16.6271 8.0396 16.4525 7.90466C16.2779 7.76981 16.1906 7.61902 16.1906 7.4523C16.1906 7.27768 16.2878 7.12491 16.4823 6.99397C16.6767 6.86307 16.9565 6.79762 17.3216 6.79762C17.8771 6.79 18.3692 6.88524 18.7977 7.08334L18.9762 7.17865L19.25 5.52382ZM24.3095 5.33342H22.7857C22.2698 5.33342 21.9246 5.5477 21.75 5.97627L18.8214 12.9763H20.8929L21.3095 11.8334H23.8333C23.8729 12.008 23.9523 12.389 24.0714 12.9763H25.9048L24.3095 5.33342ZM27.4286 1.52382V16.7619C27.4286 17.1746 27.2778 17.5317 26.9762 17.8333C26.6746 18.1349 26.3175 18.2857 25.9048 18.2857H1.52381C1.11111 18.2857 0.753968 18.1349 0.452382 17.8333C0.150794 17.5317 0 17.1746 0 16.7619V1.52382C0 1.11111 0.150794 0.753966 0.452382 0.452389C0.753968 0.150796 1.11111 0 1.52381 0H25.9048C26.3175 0 26.6746 0.150796 26.9762 0.452389C27.2778 0.753966 27.4286 1.11111 27.4286 1.52382Z" fill="#E3D5C8"/>
</svg>
